<svg width="24" height="24" viewBox="0 0 24 24" fill="none" xmlns="http://www.w3.org/2000/svg">
<path d="M14.1538 13.75L16.4923 16.125C16.7179 16.3542 17.0051 16.4687 17.3538 16.4687C17.7026 16.4687 17.9897 16.3542 18.2154 16.125C18.441 15.8958 18.5538 15.6042 18.5538 15.25C18.5538 14.8958 18.441 14.6042 18.2154 14.375L15.8769 12L18.2154 9.625C18.441 9.39583 18.5538 9.10417 18.5538 8.75C18.5538 8.39583 18.441 8.10417 18.2154 7.875C17.9897 7.64583 17.7026 7.53125 17.3538 7.53125C17.0051 7.53125 16.7179 7.64583 16.4923 7.875L14.1538 10.25L11.8154 7.875C11.5897 7.64583 11.3026 7.53125 10.9538 7.53125C10.6051 7.53125 10.3179 7.64583 10.0923 7.875C9.86667 8.10417 9.75385 8.39583 9.75385 8.75C9.75385 9.10417 9.86667 9.39583 10.0923 9.625L12.4308 12L10.0923 14.375C9.86667 14.6042 9.75385 14.8958 9.75385 15.25C9.75385 15.6042 9.86667 15.8958 10.0923 16.125C10.3179 16.3542 10.6051 16.4687 10.9538 16.4687C11.3026 16.4687 11.5897 16.3542 11.8154 16.125L14.1538 13.75ZM8 22C7.61026 22 7.24103 21.9112 6.89231 21.7337C6.54359 21.5562 6.25641 21.3117 6.03077 21L0.492308 13.5C0.164103 13.0625 0 12.5625 0 12C0 11.4375 0.164103 10.9375 0.492308 10.5L6.03077 3C6.25641 2.6875 6.54359 2.44292 6.89231 2.26625C7.24103 2.08958 7.61026 2.00083 8 2H21.5385C22.2154 2 22.7951 2.245 23.2775 2.735C23.76 3.225 24.0008 3.81333 24 4.5V19.5C24 20.1875 23.7592 20.7762 23.2775 21.2662C22.7959 21.7562 22.2162 22.0008 21.5385 22H8ZM8 19.5H21.5385V4.5H8L2.46154 12L8 19.5Z" fill="white"/>
</svg>
