<svg width="24" height="24" viewBox="0 0 24 24" fill="none" xmlns="http://www.w3.org/2000/svg">
<path d="M8.83995 16.7261L19.8013 5.40089C20.0599 5.13363 20.3617 5 20.7066 5C21.0515 5 21.3533 5.13363 21.612 5.40089C21.8707 5.66815 22 5.98575 22 6.35367C22 6.7216 21.8707 7.03875 21.612 7.30512L9.74531 19.5991C9.48663 19.8664 9.18484 20 8.83995 20C8.49505 20 8.19326 19.8664 7.93459 19.5991L2.37309 13.853C2.11441 13.5857 1.99025 13.2686 2.0006 12.9016C2.01094 12.5345 2.14589 12.2169 2.40542 11.9488C2.66496 11.6806 2.97235 11.547 3.3276 11.5479C3.68284 11.5488 3.9898 11.6824 4.24848 11.9488L8.83995 16.7261Z" fill="white"/>
</svg>
