<svg width="35" height="35" viewBox="0 0 35 35" fill="none" xmlns="http://www.w3.org/2000/svg">
<path d="M28.1021 7.77284C26.1625 6.86867 24.0625 6.21242 21.875 5.83325C21.8365 5.8338 21.7999 5.84953 21.7729 5.877C21.5104 6.35825 21.2042 6.98534 21 7.46659C18.6798 7.11681 16.3202 7.11681 14 7.46659C13.7958 6.97075 13.4896 6.35825 13.2125 5.877C13.1979 5.84784 13.1542 5.83325 13.1104 5.83325C10.9229 6.21242 8.83751 6.86867 6.88334 7.77284C6.86876 7.77284 6.85418 7.78742 6.83959 7.802C2.87293 13.7374 1.77917 19.5124 2.31876 25.2291C2.31876 25.2583 2.33334 25.2874 2.36251 25.302C4.98751 27.227 7.51043 28.3937 10.0042 29.1666C10.0479 29.1812 10.0917 29.1666 10.1063 29.1374C10.6896 28.3353 11.2146 27.4895 11.6667 26.5999C11.6958 26.5416 11.6667 26.4833 11.6083 26.4687C10.7771 26.1478 9.98959 25.7687 9.21668 25.3312C9.15834 25.302 9.15834 25.2145 9.20209 25.1708C9.36251 25.0541 9.52292 24.9228 9.68334 24.8062C9.71251 24.777 9.75626 24.777 9.78543 24.7916C14.8021 27.0812 20.2125 27.0812 25.1708 24.7916C25.2 24.777 25.2438 24.777 25.2729 24.8062C25.4333 24.9374 25.5938 25.0541 25.7542 25.1853C25.8125 25.2291 25.8125 25.3166 25.7396 25.3458C24.9813 25.7978 24.1792 26.1624 23.3479 26.4833C23.2896 26.4978 23.275 26.5708 23.2896 26.6145C23.7563 27.5041 24.2813 28.3499 24.85 29.152C24.8938 29.1666 24.9375 29.1812 24.9813 29.1666C27.4896 28.3937 30.0125 27.227 32.6375 25.302C32.6667 25.2874 32.6813 25.2583 32.6813 25.2291C33.3229 18.6228 31.6167 12.8916 28.1604 7.802C28.1458 7.78742 28.1313 7.77284 28.1021 7.77284ZM12.425 21.7437C10.9229 21.7437 9.66876 20.3583 9.66876 18.652C9.66876 16.9458 10.8938 15.5603 12.425 15.5603C13.9708 15.5603 15.1958 16.9603 15.1813 18.652C15.1813 20.3583 13.9563 21.7437 12.425 21.7437ZM22.5896 21.7437C21.0875 21.7437 19.8333 20.3583 19.8333 18.652C19.8333 16.9458 21.0583 15.5603 22.5896 15.5603C24.1354 15.5603 25.3604 16.9603 25.3458 18.652C25.3458 20.3583 24.1354 21.7437 22.5896 21.7437Z" fill="white"/>
</svg>
