<svg width="35" height="35" viewBox="0 0 35 35" fill="none" xmlns="http://www.w3.org/2000/svg">
<path d="M16.0416 17.4999C16.0416 19.4338 15.2734 21.2885 13.9059 22.6559C12.5385 24.0234 10.6838 24.7916 8.74992 24.7916C6.81605 24.7916 4.96138 24.0234 3.59393 22.6559C2.22648 21.2885 1.45825 19.4338 1.45825 17.4999C1.45825 15.566 2.22648 13.7114 3.59393 12.3439C4.96138 10.9765 6.81605 10.2083 8.74992 10.2083C10.6838 10.2083 12.5385 10.9765 13.9059 12.3439C15.2734 13.7114 16.0416 15.566 16.0416 17.4999ZM33.5416 17.4999C33.5416 19.4338 32.7734 21.2885 31.4059 22.6559C30.0385 24.0234 28.1838 24.7916 26.2499 24.7916C24.316 24.7916 22.4614 24.0234 21.0939 22.6559C19.7265 21.2885 18.9583 19.4338 18.9583 17.4999C18.9583 15.566 19.7265 13.7114 21.0939 12.3439C22.4614 10.9765 24.316 10.2083 26.2499 10.2083C28.1838 10.2083 30.0385 10.9765 31.4059 12.3439C32.7734 13.7114 33.5416 15.566 33.5416 17.4999Z" fill="white"/>
</svg>
