<svg width="24" height="24" viewBox="0 0 24 24" fill="none" xmlns="http://www.w3.org/2000/svg">
<g clip-path="url(#clip0_23_102)">
<path d="M11.94 19.2C12.36 19.2 12.7152 19.0548 13.0056 18.7644C13.296 18.474 13.4408 18.1192 13.44 17.7C13.4392 17.2808 13.2944 16.9256 13.0056 16.6344C12.7168 16.3432 12.3616 16.1984 11.94 16.2C11.5184 16.2016 11.1636 16.3468 10.8756 16.6356C10.5876 16.9244 10.4424 17.2792 10.44 17.7C10.4376 18.1208 10.5828 18.476 10.8756 18.7656C11.1684 19.0552 11.5232 19.2 11.94 19.2ZM12 24C10.34 24 8.78 23.6848 7.32 23.0544C5.86 22.424 4.59 21.5692 3.51 20.49C2.43 19.4108 1.5752 18.1408 0.945601 16.68C0.316001 15.2192 0.000801518 13.6592 1.51899e-06 12C-0.00079848 10.3408 0.314401 8.7808 0.945601 7.32C1.5768 5.8592 2.4316 4.5892 3.51 3.51C4.5884 2.4308 5.8584 1.576 7.32 0.9456C8.7816 0.3152 10.3416 0 12 0C13.6584 0 15.2184 0.3152 16.68 0.9456C18.1416 1.576 19.4116 2.4308 20.49 3.51C21.5684 4.5892 22.4236 5.8592 23.0556 7.32C23.6876 8.7808 24.0024 10.3408 24 12C23.9976 13.6592 23.6824 15.2192 23.0544 16.68C22.4264 18.1408 21.5716 19.4108 20.49 20.49C19.4084 21.5692 18.1384 22.4244 16.68 23.0556C15.2216 23.6868 13.6616 24.0016 12 24ZM12 21.6C14.68 21.6 16.95 20.67 18.81 18.81C20.67 16.95 21.6 14.68 21.6 12C21.6 9.32 20.67 7.05 18.81 5.19C16.95 3.33 14.68 2.4 12 2.4C9.32 2.4 7.05 3.33 5.19 5.19C3.33 7.05 2.4 9.32 2.4 12C2.4 14.68 3.33 16.95 5.19 18.81C7.05 20.67 9.32 21.6 12 21.6ZM12.12 6.84C12.62 6.84 13.0552 7 13.4256 7.32C13.796 7.64 13.9808 8.04 13.98 8.52C13.98 8.96 13.8452 9.35 13.5756 9.69C13.306 10.03 13.0008 10.35 12.66 10.65C12.2 11.05 11.7952 11.49 11.4456 11.97C11.096 12.45 10.9208 12.99 10.92 13.59C10.92 13.87 11.0252 14.1052 11.2356 14.2956C11.446 14.486 11.6908 14.5808 11.97 14.58C12.27 14.58 12.5252 14.48 12.7356 14.28C12.946 14.08 13.0808 13.83 13.14 13.53C13.22 13.11 13.4 12.7352 13.68 12.4056C13.96 12.076 14.26 11.7608 14.58 11.46C15.04 11.02 15.4352 10.54 15.7656 10.02C16.096 9.5 16.2608 8.92 16.26 8.28C16.26 7.26 15.8452 6.4252 15.0156 5.7756C14.186 5.126 13.2208 4.8008 12.12 4.8C11.36 4.8 10.6352 4.96 9.94559 5.28C9.256 5.6 8.7308 6.09 8.37 6.75C8.23 6.99 8.1852 7.2452 8.2356 7.5156C8.286 7.786 8.4208 7.9908 8.64 8.13C8.92 8.29 9.21 8.34 9.51 8.28C9.81 8.22 10.06 8.05 10.26 7.77C10.48 7.47 10.7552 7.24 11.0856 7.08C11.416 6.92 11.7608 6.84 12.12 6.84Z" fill="white"/>
</g>
<defs>
<clipPath id="clip0_23_102">
<rect width="24" height="24" fill="white"/>
</clipPath>
</defs>
</svg>
