<svg width="24" height="24" viewBox="0 0 24 24" fill="none" xmlns="http://www.w3.org/2000/svg">
<g clip-path="url(#clip0_23_101)">
<path d="M6 18C4.34 18 2.9252 17.4148 1.7556 16.2444C0.586001 15.074 0.000800819 13.6592 8.19113e-07 12C-0.000799181 10.3408 0.584401 8.926 1.7556 7.7556C2.9268 6.5852 4.3416 6 6 6H9.6C9.94 6 10.2252 6.1152 10.4556 6.3456C10.686 6.576 10.8008 6.8608 10.8 7.2C10.7992 7.5392 10.684 7.8244 10.4544 8.0556C10.2248 8.2868 9.94 8.4016 9.6 8.4H6C5 8.4 4.15 8.75 3.45 9.45C2.75 10.15 2.4 11 2.4 12C2.4 13 2.75 13.85 3.45 14.55C4.15 15.25 5 15.6 6 15.6H9.6C9.94 15.6 10.2252 15.7152 10.4556 15.9456C10.686 16.176 10.8008 16.4608 10.8 16.8C10.7992 17.1392 10.684 17.4244 10.4544 17.6556C10.2248 17.8868 9.94 18.0016 9.6 18H6ZM8.4 13.2C8.06 13.2 7.7752 13.0848 7.5456 12.8544C7.316 12.624 7.2008 12.3392 7.2 12C7.1992 11.6608 7.3144 11.376 7.5456 11.1456C7.7768 10.9152 8.0616 10.8 8.4 10.8H15.6C15.94 10.8 16.2252 10.9152 16.4556 11.1456C16.686 11.376 16.8008 11.6608 16.8 12C16.7992 12.3392 16.684 12.6244 16.4544 12.8556C16.2248 13.0868 15.94 13.2016 15.6 13.2H8.4ZM14.4 18C14.06 18 13.7752 17.8848 13.5456 17.6544C13.316 17.424 13.2008 17.1392 13.2 16.8C13.1992 16.4608 13.3144 16.176 13.5456 15.9456C13.7768 15.7152 14.0616 15.6 14.4 15.6H18C19 15.6 19.85 15.25 20.55 14.55C21.25 13.85 21.6 13 21.6 12C21.6 11 21.25 10.15 20.55 9.45C19.85 8.75 19 8.4 18 8.4H14.4C14.06 8.4 13.7752 8.2848 13.5456 8.0544C13.316 7.824 13.2008 7.5392 13.2 7.2C13.1992 6.8608 13.3144 6.576 13.5456 6.3456C13.7768 6.1152 14.0616 6 14.4 6H18C19.66 6 21.0752 6.5852 22.2456 7.7556C23.416 8.926 24.0008 10.3408 24 12C23.9992 13.6592 23.414 15.0744 22.2444 16.2456C21.0748 17.4168 19.66 18.0016 18 18H14.4Z" fill="white"/>
</g>
<defs>
<clipPath id="clip0_23_101">
<rect width="24" height="24" fill="white"/>
</clipPath>
</defs>
</svg>
