<?xml version="1.0" encoding="UTF-8" standalone="no"?>
<!-- Generator: Adobe Illustrator 14.0.0, SVG Export Plug-In . SVG Version: 6.00 Build 43363)  -->
<svg
   xmlns:dc="http://purl.org/dc/elements/1.1/"
   xmlns:cc="http://creativecommons.org/ns#"
   xmlns:rdf="http://www.w3.org/1999/02/22-rdf-syntax-ns#"
   xmlns:svg="http://www.w3.org/2000/svg"
   xmlns="http://www.w3.org/2000/svg"
   xmlns:sodipodi="http://sodipodi.sourceforge.net/DTD/sodipodi-0.dtd"
   xmlns:inkscape="http://www.inkscape.org/namespaces/inkscape"
   version="1.0"
   baseProfile="tiny"
   id="Layer_1"
   x="0px"
   y="0px"
   width="265"
   height="70"
   viewBox="0 0 612 792"
   xml:space="preserve"
   sodipodi:version="0.32"
   inkscape:version="0.46"
   sodipodi:docname="Skytrain.svg"
   inkscape:output_extension="org.inkscape.output.svg.inkscape"><metadata
   id="metadata28"><rdf:RDF><cc:Work
       rdf:about=""><dc:format>image/svg+xml</dc:format><dc:type
         rdf:resource="http://purl.org/dc/dcmitype/StillImage" /></cc:Work></rdf:RDF></metadata><defs
   id="defs26"><inkscape:perspective
     sodipodi:type="inkscape:persp3d"
     inkscape:vp_x="0 : 396 : 1"
     inkscape:vp_y="0 : 1000 : 0"
     inkscape:vp_z="612 : 396 : 1"
     inkscape:persp3d-origin="306 : 264 : 1"
     id="perspective30" /></defs><sodipodi:namedview
   inkscape:window-height="667"
   inkscape:window-width="640"
   inkscape:pageshadow="2"
   inkscape:pageopacity="0.0"
   guidetolerance="10.0"
   gridtolerance="10.0"
   objecttolerance="10.0"
   borderopacity="1.0"
   bordercolor="#666666"
   pagecolor="#ffffff"
   id="base"
   showgrid="false"
   inkscape:zoom="0.58333333"
   inkscape:cx="306"
   inkscape:cy="235.17175"
   inkscape:window-x="22"
   inkscape:window-y="29"
   inkscape:current-layer="Layer_1" />
<path
   d="M 1474.1764,340.89003 C 1474.1764,340.89003 1191.8122,203.93489 737.1883,195.38921 C 873.79666,228.30739 1004.8473,275.3188 1125.313,340.89003 L 1474.1764,340.89003"
   id="path3"
   style="fill:#305aa7" />
<path
   d="M 737.19848,195.39941 L 890.83701,195.39941 C 890.83701,195.39941 1022.9381,194.26746 1208.567,210.91011 C 831.60879,78.319579 65.190198,-55.892386 -1124.9631,339.63571 C -1054.7009,316.73168 -68.878968,3.1931056 737.19848,195.39941"
   id="path5"
   style="fill:#305aa7" />
<path
   d="M 1741.0605,298.43699 C 1291.7803,69.682129 844.90659,74.322083 844.61087,74.362874 L 664.44806,74.362874 C 923.96942,80.756829 1132.9307,150.35616 1275.5047,217.28367 C 1416.1821,231.41769 1583.5264,257.1159 1741.0605,298.43699"
   id="path7"
   style="fill:#f8d92b" />
<path
   d="M -623.37906,531.55648 C -627.71309,588.60243 -600.78095,618.97119 -546.68214,618.97119 C -501.93462,618.97119 -467.19104,596.64842 -461.50072,564.3523 C -459.13486,551.0443 -462.28595,536.33921 -471.20894,525.39707 C -496.68279,494.53882 -564.01823,469.85018 -593.4284,434.2194 C -602.68792,422.84897 -609.8773,406.6958 -605.76763,383.41445 C -597.18116,334.51647 -549.63947,302.22034 -486.96439,302.22034 C -444.68472,302.22034 -415.53967,314.55956 -391.4629,328.77516 L -402.84353,393.4286 L -418.9967,393.4286 C -417.32427,346.3764 -443.81791,318.36331 -490.28884,318.36331 C -531.13064,318.36331 -559.97994,336.40304 -565.0584,365.41551 C -567.34269,378.19323 -563.39617,388.17678 -557.14498,395.75367 C -532.09942,426.17342 -464.21331,448.0169 -433.29388,485.53425 C -419.99608,501.7282 -414.04062,521.64432 -418.16048,544.93587 C -425.17651,584.79868 -462.02081,637.50041 -550.8326,637.50041 C -583.61822,637.50041 -623.36886,628.48565 -652.64647,614.21906 L -639.47103,531.57687 L -623.37906,531.57687"
   id="path9"
   style="fill:#305aa7" />
<path
   d="M -171.64119,418.07644 L -173.79296,430.41567 C -195.46303,431.86374 -210.51483,439.44063 -248.41972,468.42251 L -300.06089,507.85702 L -222.32383,595.22074 C -210.15794,609.47713 -201.31655,616.14642 -193.88244,619.47087 L -196.02395,631.8101 L -238.27301,631.8101 C -249.03158,622.79533 -261.19744,610.9354 -268.28484,602.33873 L -336.91539,520.67553 L -287.5789,483.15818 C -264.5117,465.54675 -257.07757,458.41856 -255.49693,449.49557 C -253.3962,437.06457 -261.8399,431.36405 -284.4686,430.40547 L -282.28629,418.06624 L -171.64119,418.06624 M -300.33622,302.21015 L -349.23422,579.53667 C -353.69061,604.7148 -353.51725,619.93997 -321.11915,619.46068 L -323.31165,631.7999 L -427.26704,631.7999 L -425.17651,619.46068 C -402.1501,618.4919 -391.64646,609.95642 -387.26145,585.26778 L -345.06335,345.87671 L -373.64752,330.21304 L -372.42379,323.07465 L -300.33622,302.21015 z"
   id="path11"
   style="fill:#305aa7" />
<path
   d="M 32.149707,418.07644 L 29.916416,430.41567 C 8.7357356,434.70889 0.016755571,443.72367 -22.204056,483.63748 L -119.90823,660.79197 C -138.77401,694.98487 -164.73736,721.10119 -195.63643,721.10119 C -216.99043,721.10119 -230.73691,710.16924 -228.1569,695.45396 C -226.26014,684.99111 -215.6035,675.49705 -206.09923,675.49705 C -191.43494,675.49705 -192.78106,691.65022 -173.79296,691.65022 C -155.7532,691.65022 -140.56881,675.49705 -118.59274,634.16577 L -166.31805,463.19108 C -173.66037,437.53366 -178.39206,431.85354 -196.6562,430.40547 L -194.41273,418.06624 L -93.740939,418.06624 L -95.923249,430.40547 C -116.54302,431.36405 -125.4354,436.13657 -127.35261,447.03792 C -128.81088,455.1349 -127.4444,463.68057 -121.05042,486.96193 L -93.353429,588.12314 L -49.615497,509.76399 C -33.064627,480.29263 -25.365326,463.67038 -23.958046,456.04249 C -21.337236,440.85811 -28.026946,433.25063 -48.422417,430.39527 L -46.280827,418.05605 L 32.149707,418.05605"
   id="path13"
   style="fill:#305aa7" />
<path
   d="M 279.02583,307.90046 L 271.66315,384.36284 L 258.36535,384.36284 C 246.45438,336.39285 229.0775,321.64697 197.3117,321.64697 L 128.89529,321.64697 L 84.239549,574.81513 C 78.467649,607.61095 85.422449,619.47087 126.99852,618.0228 L 124.55111,631.8101 L -18.879646,631.8101 L -16.442416,618.0228 C 19.932836,618.98139 33.730307,610.9354 40.022317,574.81513 L 84.678049,321.64697 L 22.961516,321.64697 C -16.921626,321.64697 -39.468787,339.2482 -66.431558,384.36284 L -80.218849,384.36284 L -61.098148,307.90046 L 279.02583,307.90046"
   id="path15"
   style="fill:#305aa7" />
<path
   d="M 258.37553,413.34471 L 248.82027,467.9636 L 249.74825,467.9636 C 274.47772,429.97716 295.04641,415.70038 315.01357,415.70038 C 331.06478,415.70038 348.57416,429.97716 346.43266,441.83709 C 344.63786,452.25914 333.47138,469.85018 325.42538,469.85018 C 313.5145,469.85018 310.45519,447.04812 293.3434,447.04812 C 281.91183,447.04812 272.41773,455.14509 245.13888,488.8587 L 228.8532,580.99495 C 223.47899,611.3739 226.48731,621.34725 270.52097,619.47087 L 268.33866,631.8101 L 145.33401,631.8101 L 147.47551,619.47087 C 175.05009,619.47087 185.99218,613.78056 191.02986,585.27798 L 213.62801,457.02147 L 178.99657,440.86831 L 180.16929,434.2194 L 258.37553,413.34471"
   id="path17"
   style="fill:#305aa7" />
<path
   d="M 398.62456,542.02952 C 377.1686,550.61599 365.73693,561.54793 363.19773,575.78392 C 359.87324,594.73125 372.23288,608.04945 393.17891,608.04945 C 410.26007,608.04945 429.42157,599.02449 448.12421,581.95353 L 459.50481,517.35108 L 398.62456,542.02952 M 514.26644,610.9354 C 495.86979,628.96494 481.61347,637.03133 469.31498,637.03133 C 449.8374,637.03133 441.60782,624.20261 445.10562,599.02449 C 418.44885,623.75391 391.39438,637.03133 369.08178,637.03133 C 336.73463,637.03133 317.68536,616.14642 322.93716,586.20597 C 328.2094,556.30631 348.513,541.07094 415.38954,519.71695 L 461.74828,505.01186 L 468.22387,467.9738 C 472.51706,443.72367 457.2307,428.0498 430.14561,428.0498 C 408.78144,428.0498 388.08006,440.39922 385.67346,453.70722 C 383.75625,464.64935 394.16814,476.02999 393.03614,482.2098 C 391.90422,488.8587 361.12757,498.83206 358.81266,498.83206 C 354.04017,498.83206 348.78837,482.68909 351.23578,468.89159 C 356.84455,437.08496 397.59452,413.3549 447.49196,413.3549 C 494.93163,413.3549 511.47232,432.83252 504.8744,470.34987 L 485.4478,580.51565 C 482.51082,597.1583 485.05002,604.2967 494.07499,604.2967 C 499.32688,604.2967 504.79279,602.83842 512.14538,599.03468 L 514.26644,610.9354 z"
   id="path19"
   style="fill:#305aa7" />
<path
   d="M 631.83581,302.21015 C 645.15397,302.21015 654.15858,313.14208 651.79269,326.4093 C 649.47779,339.7071 636.6083,350.65943 623.30032,350.65943 C 609.99233,350.65943 601.00817,339.7071 603.34343,326.4093 C 605.69905,313.15228 618.61961,302.21015 631.83581,302.21015 M 631.21373,413.34471 L 602.02794,579.10837 C 596.77605,609.00804 601.11013,619.47087 628.1646,619.47087 L 626.02309,631.8101 L 518.64133,631.8101 L 520.82355,619.47087 C 552.16112,619.47087 559.29951,611.3739 565.2958,577.1912 L 586.57836,456.55238 L 554.65961,440.87851 L 555.92412,433.76051 L 631.21373,413.34471 z"
   id="path21"
   style="fill:#305aa7" />
<path
   d="M 744.63259,413.34471 L 737.4534,454.18651 C 765.37468,430.41567 796.40634,413.34471 826.79549,413.34471 C 862.90555,413.34471 885.79942,437.07477 877.83493,482.1996 L 860.49885,580.50546 C 855.19607,610.45611 860.76404,619.47087 888.33862,619.47087 L 886.14613,631.8101 L 777.37744,631.8101 L 779.56993,619.47087 C 810.3364,619.95017 818.44357,609.00804 823.77698,578.62908 L 840.27687,485.03456 C 844.74346,459.86663 831.3844,441.3578 805.28854,441.3578 C 782.93514,441.3578 756.83919,451.82064 734.68981,469.85018 L 715.70171,577.6603 C 710.31732,608.03925 711.44924,620.42946 746.29479,619.47087 L 744.1431,631.8101 L 633.49801,631.8101 L 635.63952,619.47087 C 662.8164,618.98139 672.39201,612.81177 678.53108,578.13958 L 699.89525,457.02147 L 668.99617,441.3578 L 670.12818,434.70889 L 744.63259,413.34471"
   id="path23"
   style="fill:#305aa7" />
</svg>